<?xml version="1.0" encoding="utf-8"?>
<!-- Generator: Adobe Illustrator 21.1.0, SVG Export Plug-In . SVG Version: 6.00 Build 0)  -->
<svg version="1.1" id="Layer_1" xmlns="http://www.w3.org/2000/svg" xmlns:xlink="http://www.w3.org/1999/xlink" x="0px" y="0px"
	 viewBox="0 0 40 13.5" style="enable-background:new 0 0 40 13.5;" xml:space="preserve">
<style type="text/css">
	.st0{fill:#636363;}
</style>
<g>
	<path class="st0" d="M39.8,3c-0.9,1.4-2.3,2.3-3.9,2.8c-7.5,2.4-15.1,4.9-22.6,7.3c-1.2,0.4-2.5,0.5-3.7,0.4
		c-2-0.2-3.9-0.6-5.8-0.8c-0.2,0-0.3-0.1-0.7-0.3C7.1,11,11,9.7,15,8.3C13.1,6,11.2,3.8,9.3,1.5c0.5-0.5,1-1,1.4-1.5
		c4.2,1.6,8.4,3.3,12.5,4.9c0.7,0.3,1.3,0.3,2,0.1c3.4-1.2,6.9-2.3,10.3-3.4c1.5-0.5,3-0.5,4.3,0.5C40.1,2.3,39.9,2.8,39.8,3z"/>
	<path class="st0" d="M0,8.4c0.7-1,1.6-0.9,2.6-0.3C4,8.9,5.5,9.5,7.1,10.3c-1,0.3-1.8,0.6-2.7,0.9c-1.5,0.5-1.5,0.5-2.6-0.7
		C1.2,9.8,0.6,9.2,0,8.5C0,8.5,0,8.5,0,8.4z"/>
</g>
</svg>
