<?xml version="1.0" encoding="utf-8"?>
<!-- Generator: Adobe Illustrator 21.1.0, SVG Export Plug-In . SVG Version: 6.00 Build 0)  -->
<svg version="1.1" id="Layer_2" xmlns="http://www.w3.org/2000/svg" xmlns:xlink="http://www.w3.org/1999/xlink" x="0px" y="0px"
	 viewBox="0 0 44 224" style="enable-background:new 0 0 44 224;" xml:space="preserve">
<style type="text/css">
	.st0{fill:none;stroke:#717171;stroke-miterlimit:10;}
	.st1{fill:#EA5C59;}
	.st2{fill:#E95D59;}
</style>
<circle class="st0" cx="21.3" cy="33.5" r="8.8"/>
<circle class="st0" cx="21.3" cy="85.3" r="8.8"/>
<circle class="st1" cx="21.3" cy="33.5" r="3"/>
<path class="st0" d="M29.8,142.3H14.5c-0.6,0-1-0.4-1-1V126c0-0.6,0.4-1,1-1h15.3c0.5,0,1,0.4,1,1v15.3
	C30.8,141.8,30.3,142.3,29.8,142.3z"/>
<path class="st0" d="M29.8,191.5H14.5c-0.6,0-1-0.4-1-1v-15.3c0-0.6,0.4-1,1-1h15.3c0.5,0,1,0.4,1,1v15.3
	C30.8,191.1,30.3,191.5,29.8,191.5z"/>
<g id="Checklist">
	<polygon class="st2" points="17.2,183.1 20.8,186.7 27.1,180.4 25.8,179 20.8,183.9 18.5,181.8 	"/>
</g>
</svg>
